<svg width="22" height="22" viewBox="0 0 22 22" fill="none" xmlns="http://www.w3.org/2000/svg">
<path d="M5.52795 0.0556641C6.28395 0.301664 6.76995 0.865664 7.18395 1.48966C7.65795 2.21566 8.11395 2.95366 8.53395 3.71566C8.83995 4.27366 9.00195 4.89166 8.86995 5.54566C8.78595 5.95966 8.59395 6.31366 8.28795 6.58966C7.86795 6.97366 7.44195 7.36366 6.97995 7.68766C6.07395 8.32366 5.94195 9.09166 6.28395 10.0817C6.59595 10.9937 7.14795 11.7797 7.74195 12.5297C8.51595 13.5077 9.33795 14.4437 10.3099 15.2357C10.8499 15.6737 11.4139 16.0697 12.1039 16.2257C12.7159 16.3697 13.2379 16.2017 13.6879 15.7697C14.1259 15.3497 14.5579 14.9297 15.0199 14.5397C15.7819 13.8977 16.6219 13.8737 17.4859 14.3177C17.7679 14.4617 18.0559 14.6237 18.3019 14.8157C19.1959 15.5237 20.114 16.2017 20.798 17.1317C21.368 17.8997 21.3199 18.6377 20.6179 19.2797C19.9339 19.9037 19.2919 20.5697 18.4699 21.0317C17.6359 21.4997 16.7479 21.7997 15.7879 21.8957C15.7279 21.9017 15.6619 21.9197 15.6019 21.9377C15.2299 21.9377 14.8639 21.9377 14.4919 21.9377C14.4619 21.9257 14.4259 21.9077 14.3959 21.9017C12.8299 21.7637 11.4199 21.1817 10.0939 20.3657C8.55195 19.4177 7.22595 18.2177 6.00195 16.8977C4.44795 15.2057 3.03195 13.3997 2.00595 11.3177C1.13595 9.54766 0.625947 7.70566 0.865947 5.71366C1.01595 4.50766 1.45995 3.42166 2.17995 2.44366C2.63595 1.82566 3.23595 1.36366 3.79995 0.871664C4.18395 0.541664 4.55595 0.205664 5.05995 0.0616641C5.21595 0.0556641 5.37195 0.0556641 5.52795 0.0556641Z" fill="white"/>
</svg>
